<svg data-v-6805eed4="" version="1.0" xmlns="http://www.w3.org/2000/svg" xmlns:xlink="http://www.w3.org/1999/xlink" width="100%" height="100%" viewBox="0 0 230.000000 34.000000" preserveAspectRatio="xMidYMid meet" color-interpolation-filters="sRGB" style="margin: auto;">
  <g data-v-6805eed4="" fill="#12c2e9">
    <g data-gra="path-name" fill-rule="" opacity="1">
      <g>
        <g>
          <path d="M27.17 0L32.63 0 42.54-27.1 36.62-27.1 30.39-7.04 30.11-7.04 23.81-27.1 18.54-27.1ZM9.83 0L15.33 0 19.74-13.55 17.34-20.55 13.12-7.04 12.85-7.04 6.12-27.1 0.19-27.1ZM65.11-22.02L65.11-27.1 45.06-27.1 45.06-22.02ZM65.11-11.15L65.11-15.95 45.06-15.95 45.06-11.15ZM45.06 0L65.11 0 65.11-5.11 45.06-5.11ZM95.61-27.1L88.99-27.1 79.27 0 84.92 0 92.12-21.48 92.51-21.48 100.21 0 106.25 0ZM109.08 0L114.3 0 114.3-9.56 120.38-9.56 125.45 0 131.33 0 125.03-10.45C128.32-12.08 129.79-15.64 129.79-18.54 129.79-24 126.38-27.1 120.26-27.1L109.08-27.1 109.08-22.53 119.68-22.53C123.17-22.53 124.87-21.1 124.87-18.42 124.87-15.56 122.86-13.9 119.72-13.9L109.08-13.9ZM153.9-22.02L153.9-27.1 133.85-27.1 133.85-22.02ZM153.9-11.15L153.9-15.95 133.85-15.95 133.85-11.15ZM133.85 0L153.9 0 153.9-5.11 133.85-5.11ZM174.45-13.55C174.45-18.81 178.09-22.88 183.51-22.88 187.65-22.88 190.32-20.94 191.33-17.84L196.87-17.84C195.55-24.62 190.87-27.48 183.47-27.48 174.84-27.48 169.38-22.06 169.38-13.55ZM183.09 0L192.07-6.46 192.07 0 196.94 0C196.94-0.19 196.94-14.24 196.94-14.44L182.54-14.44 182.54-10.64 190.36-10.64 175.58 0ZM214.36-27.48L214.36-22.53C219.47-22.53 223.34-19.59 223.34-13.55 223.34-7.51 219.47-4.53 214.36-4.53 209.41-4.53 205.58-7.51 205.58-13.55 205.58-13.55 200.31-13.55 200.31-13.55 200.31-4.61 206.54 0.39 214.36 0.39 222.37 0.39 228.57-4.22 228.57-13.55 228.57-22.45 222.37-27.48 214.36-27.48Z" transform="translate(-0.1899999976158142, 27.479999542236328)"></path>
        </g>
      </g>
    </g>
  </g>
  <defs v-gra="od"></defs>
</svg>