<svg data-v-6805eed4="" version="1.0" xmlns="http://www.w3.org/2000/svg" xmlns:xlink="http://www.w3.org/1999/xlink" width="100%" height="100%" viewBox="0 0 250 47.8" preserveAspectRatio="xMidYMid meet" color-interpolation-filters="sRGB" style="margin: auto;">
  <g data-v-6805eed4="" fill="#12c2e9">
    <g class="tp-name" opacity="1">
      <g>
        <rect data-gra="graph-name-bg" stroke-width="2" class="i-icon-bg" stroke="#12c2e9" x="0" y="0" width="249.6300048828125" height="47.25" fill-opacity="0"></rect>
      </g>
      <g>
        <g data-gra="path-name-bg">
          <g transform="translate(5,5)">
            <g data-gra="path-name" fill="#12c2e9">
              <g transform="scale(1)">
                <path d="M33.58-35.33L45.76-34.24L39.99-0.05L25.98 0.25L22.97-17.47L19.96-1.04L5.95-0.54L0.12-34.24L12.36-35.33L14.83-14.85L18.13-35.33L27.75-35.33L31.60-14.60L33.58-35.33ZM47.49-35.57L70.24-35.57Q70.09-33.26 69.96-30.99Q69.84-28.72 69.64-26.40L69.64-26.40L59.18-25.85L58.94-22.75L66.29-22.75L65.75-15.10L58.34-14.85L58.10-11.25L64.22-11.25L68.56-11.25Q68.41-8.54 68.25-5.86Q68.09-3.18 67.97-0.49L67.97-0.49L46.70 0L47.49-35.57ZM102.43-35.33L112.05-2.12L99.82-0.54L98.34-6.12L92.71-6.12L91.48-0.54L78.90-1.78L88.71-34.64L102.43-35.33ZM93.75-13.67L97.45-13.67L95.57-22.25L93.75-13.67ZM141.48-23.78L141.48-23.78Q141.48-21.86 141.15-20.29Q140.82-18.72 140.10-17.42Q139.39-16.11 138.25-15.00Q137.12-13.89 135.51-12.88L135.51-12.88L141.38-2.42L130.28-0.25L126.48-10.76L123.42-10.66L122.98-0.39L112.37-0.39Q112.50-6.02 112.61-11.59Q112.72-17.17 112.87-22.80L112.87-22.80Q112.92-25.63 112.96-28.42Q113.01-31.21 113.16-34.04L113.16-34.04Q114.89-34.69 116.57-35.11Q118.24-35.53 119.93-35.76Q121.62-35.99 123.36-36.08Q125.10-36.17 126.93-36.17L126.93-36.17Q129.74-36.17 132.37-35.39Q135.00-34.61 137.02-33.06Q139.04-31.50 140.26-29.18Q141.48-26.87 141.48-23.78ZM130.43-22.99L130.43-22.99Q130.43-24.03 130.15-24.89Q129.86-25.76 129.31-26.38Q128.75-27.01 127.93-27.37Q127.10-27.73 125.99-27.73L125.99-27.73Q125.50-27.73 125.03-27.67Q124.56-27.61 124.12-27.48L124.12-27.48L123.72-18.31L124.31-18.31Q125.37-18.31 126.47-18.58Q127.57-18.85 128.45-19.42Q129.32-19.98 129.88-20.87Q130.43-21.76 130.43-22.99ZM143.80-35.57L166.55-35.57Q166.40-33.26 166.28-30.99Q166.15-28.72 165.96-26.40L165.96-26.40L155.50-25.85L155.25-22.75L162.60-22.75L162.06-15.10L154.66-14.85L154.41-11.25L160.53-11.25L164.87-11.25Q164.72-8.54 164.56-5.86Q164.40-3.18 164.28-0.49L164.28-0.49L143.01 0L143.80-35.57Z" transform="translate(-0.12335085272980799, 36.51185240802317)"></path>
              </g>
            </g>
          </g>
        </g>
        <g data-gra="path-name-1-bg" transform="translate(176.4300079345703,0)" mask="url(#5a1b6a1a-5bb9-42c1-8a8a-720414132d48)">
          <g>
            <rect data-gra="graph-name-bg" stroke-width="2" class="i-icon-bg" x="0" y="0" width="73.20000076293945" height="47.25" fill="#12c2e9"></rect>
          </g>
          <g transform="translate(5,5)">
            <g data-gra="path-name-1" fill="#12c2e9">
              <g transform="scale(1)">
                <path d="M30.74-21.61L31.04-5.03Q29.88-3.58 28.17-2.49Q26.47-1.41 24.52-0.69Q22.57 0.02 20.53 0.38Q18.48 0.74 16.63 0.74L16.63 0.74Q13.05 0.74 10.04-0.54Q7.03-1.83 4.85-4.08Q2.66-6.34 1.43-9.40Q0.20-12.46 0.20-15.99L0.20-15.99Q0.20-18.68 0.81-21.25Q1.43-23.83 2.58-26.11Q3.73-28.40 5.38-30.31Q7.03-32.22 9.13-33.60Q11.22-34.98 13.72-35.75Q16.21-36.51 19.05-36.51L19.05-36.51Q20.11-36.51 21.32-36.43Q22.52-36.34 23.72-36.13Q24.92-35.92 26.05-35.55Q27.19-35.18 28.12-34.64L28.12-34.64L27.43-25.21Q26.05-25.73 24.58-25.92Q23.12-26.10 21.71-26.10L21.71-26.10Q19.74-26.10 18.02-25.50Q16.31-24.89 15.04-23.76Q13.77-22.62 13.03-20.99Q12.29-19.37 12.29-17.32L12.29-17.32Q12.29-16.04 12.63-14.84Q12.98-13.64 13.68-12.72Q14.38-11.79 15.43-11.22Q16.48-10.66 17.86-10.66L17.86-10.66Q18.80-10.66 19.80-10.90Q20.80-11.15 21.51-11.74L21.51-11.74L21.61-13.67L15.69-13.77L15.99-21.17Q19.66-21.29 23.34-21.38Q27.01-21.46 30.74-21.61L30.74-21.61ZM63.40-17.42L63.40-17.42Q63.40-15.17 62.88-13.09Q62.37-11.00 61.39-9.18Q60.42-7.35 59.02-5.83Q57.63-4.32 55.89-3.23Q54.15-2.15 52.10-1.54Q50.06-0.94 47.76-0.94L47.76-0.94Q45.54-0.94 43.53-1.50Q41.52-2.07 39.77-3.10Q38.02-4.12 36.60-5.56Q35.18-7.01 34.18-8.77Q33.18-10.53 32.63-12.56Q32.07-14.58 32.07-16.78L32.07-16.78Q32.07-18.92 32.59-20.98Q33.11-23.04 34.08-24.87Q35.06-26.69 36.44-28.22Q37.82-29.75 39.53-30.86Q41.25-31.97 43.25-32.59Q45.25-33.21 47.47-33.21L47.47-33.21Q51.04-33.21 53.99-32.10Q56.94-30.99 59.02-28.93Q61.11-26.87 62.26-23.94Q63.40-21.02 63.40-17.42ZM52.45-16.78L52.45-16.78Q52.45-17.84 52.14-18.84Q51.83-19.83 51.24-20.61Q50.65-21.39 49.77-21.87Q48.90-22.35 47.76-22.35L47.76-22.35Q46.60-22.35 45.69-21.93Q44.78-21.51 44.12-20.78Q43.47-20.06 43.12-19.08Q42.78-18.11 42.78-17.02L42.78-17.02Q42.78-15.99 43.07-14.95Q43.37-13.91 43.96-13.08Q44.55-12.24 45.43-11.72Q46.31-11.20 47.47-11.20L47.47-11.20Q48.62-11.20 49.55-11.66Q50.48-12.11 51.12-12.89Q51.76-13.67 52.10-14.68Q52.45-15.69 52.45-16.78Z" transform="translate(-0.19736136436769278, 36.51185240802317)"></path>
              </g>
            </g>
          </g>
        </g>
      </g>
    </g>
  </g>
  <mask id="5a1b6a1a-5bb9-42c1-8a8a-720414132d48">
    <g fill="white">
      <rect data-gra="graph-name-bg" stroke-width="2" class="i-icon-bg" x="0" y="0" width="73.20000076293945" height="47.25"></rect>
    </g>
    <g transform="translate(5,5)" fill="black">
      <g data-gra="path-name-1">
        <g transform="scale(1)">
          <path d="M30.74-21.61L31.04-5.03Q29.88-3.58 28.17-2.49Q26.47-1.41 24.52-0.69Q22.57 0.02 20.53 0.38Q18.48 0.74 16.63 0.74L16.63 0.74Q13.05 0.74 10.04-0.54Q7.03-1.83 4.85-4.08Q2.66-6.34 1.43-9.40Q0.20-12.46 0.20-15.99L0.20-15.99Q0.20-18.68 0.81-21.25Q1.43-23.83 2.58-26.11Q3.73-28.40 5.38-30.31Q7.03-32.22 9.13-33.60Q11.22-34.98 13.72-35.75Q16.21-36.51 19.05-36.51L19.05-36.51Q20.11-36.51 21.32-36.43Q22.52-36.34 23.72-36.13Q24.92-35.92 26.05-35.55Q27.19-35.18 28.12-34.64L28.12-34.64L27.43-25.21Q26.05-25.73 24.58-25.92Q23.12-26.10 21.71-26.10L21.71-26.10Q19.74-26.10 18.02-25.50Q16.31-24.89 15.04-23.76Q13.77-22.62 13.03-20.99Q12.29-19.37 12.29-17.32L12.29-17.32Q12.29-16.04 12.63-14.84Q12.98-13.64 13.68-12.72Q14.38-11.79 15.43-11.22Q16.48-10.66 17.86-10.66L17.86-10.66Q18.80-10.66 19.80-10.90Q20.80-11.15 21.51-11.74L21.51-11.74L21.61-13.67L15.69-13.77L15.99-21.17Q19.66-21.29 23.34-21.38Q27.01-21.46 30.74-21.61L30.74-21.61ZM63.40-17.42L63.40-17.42Q63.40-15.17 62.88-13.09Q62.37-11.00 61.39-9.18Q60.42-7.35 59.02-5.83Q57.63-4.32 55.89-3.23Q54.15-2.15 52.10-1.54Q50.06-0.94 47.76-0.94L47.76-0.94Q45.54-0.94 43.53-1.50Q41.52-2.07 39.77-3.10Q38.02-4.12 36.60-5.56Q35.18-7.01 34.18-8.77Q33.18-10.53 32.63-12.56Q32.07-14.58 32.07-16.78L32.07-16.78Q32.07-18.92 32.59-20.98Q33.11-23.04 34.08-24.87Q35.06-26.69 36.44-28.22Q37.82-29.75 39.53-30.86Q41.25-31.97 43.25-32.59Q45.25-33.21 47.47-33.21L47.47-33.21Q51.04-33.21 53.99-32.10Q56.94-30.99 59.02-28.93Q61.11-26.87 62.26-23.94Q63.40-21.02 63.40-17.42ZM52.45-16.78L52.45-16.78Q52.45-17.84 52.14-18.84Q51.83-19.83 51.24-20.61Q50.65-21.39 49.77-21.87Q48.90-22.35 47.76-22.35L47.76-22.35Q46.60-22.35 45.69-21.93Q44.78-21.51 44.12-20.78Q43.47-20.06 43.12-19.08Q42.78-18.11 42.78-17.02L42.78-17.02Q42.78-15.99 43.07-14.95Q43.37-13.91 43.96-13.08Q44.55-12.24 45.43-11.72Q46.31-11.20 47.47-11.20L47.47-11.20Q48.62-11.20 49.55-11.66Q50.48-12.11 51.12-12.89Q51.76-13.67 52.10-14.68Q52.45-15.69 52.45-16.78Z" transform="translate(-0.19736136436769278, 36.51185240802317)"></path>
        </g>
      </g>
    </g>
  </mask>
  <defs v-gra="od"></defs>
</svg>